<?xml version="1.0" standalone="no"?>
<!DOCTYPE svg PUBLIC "-//W3C//DTD SVG 20010904//EN"
 "http://www.w3.org/TR/2001/REC-SVG-20010904/DTD/svg10.dtd">
<svg version="1.0" xmlns="http://www.w3.org/2000/svg"
 width="512.000000pt" height="512.000000pt" viewBox="0 0 512.000000 512.000000"
 preserveAspectRatio="xMidYMid meet">
<metadata>
Created by potrace 1.11, written by Peter Selinger 2001-2013
</metadata>
<g transform="translate(0.000000,512.000000) scale(0.100000,-0.100000)"
fill="#000000" stroke="none">
<path d="M12 4461 c1 -5 64 -72 138 -149 159 -164 486 -503 598 -619 l79 -83
1476 0 1476 0 63 -29 c126 -56 211 -122 281 -218 104 -142 138 -332 96 -540
-11 -54 -24 -102 -30 -107 -5 -6 -9 -16 -9 -24 0 -21 -83 -143 -126 -185 -62
-60 -141 -108 -221 -134 l-74 -23 -854 0 c-470 0 -855 -4 -855 -8 0 -5 15 -22
33 -39 27 -26 237 -242 467 -483 55 -58 225 -235 500 -520 36 -37 153 -159
260 -270 107 -111 233 -242 280 -291 l85 -89 669 0 670 0 -444 440 c-245 242
-438 440 -431 440 20 0 186 86 266 138 256 167 454 390 575 646 42 89 96 250
106 316 3 19 7 37 9 40 11 19 20 151 20 315 0 188 -5 257 -24 345 -6 25 -13
59 -17 75 -30 142 -110 326 -200 462 -52 77 -197 236 -264 288 -188 148 -391
243 -635 300 -50 12 -378 14 -2013 15 -1172 0 -1952 -4 -1950 -9z"/>
</g>
</svg>
