<?xml version="1.0"?>
<svg xmlns="http://www.w3.org/2000/svg" height="512px" viewBox="-61 1 511 511.99975" width="512px"><path d="m195.496094 151.003906c-57.890625 0-104.996094 47.109375-104.996094 105s47.105469 104.996094 104.996094 104.996094 105-47.105469 105-104.996094-47.109375-105-105-105zm0 150c16.011718 0 30.953125-8.628906 38.996094-22.515625 4.113281-7.179687 13.285156-9.683593 20.492187-5.464843 7.160156 4.148437 9.621094 13.316406 5.464844 20.492187-13.375 23.117187-38.261719 37.484375-64.953125 37.484375-41.351563 0-74.996094-33.644531-74.996094-74.996094 0-41.355468 33.644531-75 74.996094-75 26.691406 0 51.578125 14.371094 64.953125 37.484375 4.15625 7.175781 1.695312 16.347657-5.464844 20.492188-7.207031 4.175781-16.378906 1.699219-20.492187-5.464844-8.042969-13.886719-22.984376-22.515625-38.996094-22.515625-24.8125 0-45 20.1875-45 45 0 24.816406 20.1875 45.003906 45 45.003906zm0 0" fill="#FFFFFF"/><path d="m390.496094 75.003906c0-8.289062-6.710938-14.996094-15-14.996094-55.914063 0-110.039063-16.394531-156.5625-47.402343l-15.117188-10.078125c-5.039062-3.371094-11.601562-3.371094-16.640625 0l-15.117187 10.078125c-46.519532 31.007812-100.648438 47.402343-156.558594 47.402343-8.292969 0-15 6.707032-15 14.996094v171.257813c0 119.953125 76.464844 227.039062 190.25 264.960937 1.539062.515625 3.148438.777344 4.746094.777344s3.210937-.265625 4.746094-.777344c113.789062-37.921875 190.253906-145.007812 190.253906-264.960937zm-195 315.996094c-74.441406 0-134.996094-60.554688-134.996094-134.996094s60.554688-135 134.996094-135 135 60.558594 135 135-60.558594 134.996094-135 134.996094zm0 0" fill="#FFFFFF"/></svg>
