<?xml version="1.0"?>
<svg xmlns="http://www.w3.org/2000/svg" height="512px" viewBox="0 -56 512 512" width="512px"><path d="m482 260c-13.035156 0-24.152344 8.359375-28.28125 20h-83.71875c-5.523438 0-10 4.476562-10 10v30h-80v-80h87.71875c4.128906 11.640625 15.246094 20 28.28125 20 16.542969 0 30-13.457031 30-30s-13.457031-30-30-30c-13.035156 0-24.152344 8.359375-28.28125 20h-87.71875v-80h36v30c0 5.523438 4.476562 10 10 10h97.71875c4.128906 11.640625 15.246094 20 28.28125 20 16.542969 0 30-13.457031 30-30s-13.457031-30-30-30c-13.035156 0-24.152344 8.359375-28.28125 20h-87.71875v-20h34c5.523438 0 10-4.476562 10-10v-30h73.71875c4.128906 11.640625 15.246094 20 28.28125 20 16.542969 0 30-13.457031 30-30s-13.457031-30-30-30c-13.035156 0-24.152344 8.359375-28.28125 20h-83.71875c-5.523438 0-10 4.476562-10 10v30h-80v-40h40c5.523438 0 10-4.476562 10-10v-30h51.71875c4.128906 11.640625 15.246094 20 28.28125 20 16.542969 0 30-13.457031 30-30s-13.457031-30-30-30c-13.035156 0-24.152344 8.359375-28.28125 20h-61.71875c-5.523438 0-10 4.476562-10 10v30h-30v-10c0-5.523438-4.476562-10-10-10h-260c-5.523438 0-10 4.476562-10 10v300c0 5.523438 4.476562 10 10 10h260c5.523438 0 10-4.476562 10-10v-10h36v30c0 5.523438 4.476562 10 10 10h77.71875c4.128906 11.640625 15.246094 20 28.28125 20 16.542969 0 30-13.457031 30-30s-13.457031-30-30-30c-13.035156 0-24.152344 8.359375-28.28125 20h-67.71875v-20h34c5.523438 0 10-4.476562 10-10v-30h73.71875c4.128906 11.640625 15.246094 20 28.28125 20 16.542969 0 30-13.457031 30-30s-13.457031-30-30-30zm-86-40c5.515625 0 10 4.484375 10 10s-4.484375 10-10 10-10-4.484375-10-10 4.484375-10 10-10zm56-60c5.515625 0 10 4.484375 10 10s-4.484375 10-10 10-10-4.484375-10-10 4.484375-10 10-10zm30-80c5.515625 0 10 4.484375 10 10s-4.484375 10-10 10-10-4.484375-10-10 4.484375-10 10-10zm-72-60c5.515625 0 10 4.484375 10 10s-4.484375 10-10 10-10-4.484375-10-10 4.484375-10 10-10zm-150 254.335938c-36.644531-4.902344-65-36.371094-65-74.335938s28.355469-69.433594 65-74.335938zm-240-214.335938h38.996094c-3.988282 19.5625-19.433594 35.007812-38.996094 38.996094zm0 280v-40.015625c20.117188 4.015625 36 19.898437 40.015625 40.015625zm240 0h-179.71875c-4.414062-31.160156-29.121094-55.867188-60.28125-60.28125v-160.445312c30.609375-4.398438 54.875-28.664063 59.273438-59.273438h180.726562v45.527344c-47.699219 5.011718-85 45.464844-85 94.472656s37.300781 89.460938 85 94.472656zm172 20c5.515625 0 10 4.484375 10 10s-4.484375 10-10 10-10-4.484375-10-10 4.484375-10 10-10zm50-60c-5.515625 0-10-4.484375-10-10s4.484375-10 10-10 10 4.484375 10 10-4.484375 10-10 10zm0 0" fill="#FFFFFF"/><path d="m50 170h54c5.511719 0 10-4.488281 10-10s-4.488281-10-10-10h-54c-5.511719 0-10 4.488281-10 10s4.488281 10 10 10zm0 0" fill="#FFFFFF"/><path d="m144 170c5.511719 0 10-4.488281 10-10s-4.488281-10-10-10-10 4.488281-10 10 4.488281 10 10 10zm0 0" fill="#FFFFFF"/><path d="m145 190h-95c-5.523438 0-10 4.476562-10 10s4.476562 10 10 10h95c5.523438 0 10-4.476562 10-10s-4.476562-10-10-10zm0 0" fill="#FFFFFF"/><path d="m105 230h-55c-5.523438 0-10 4.476562-10 10s4.476562 10 10 10h55c5.523438 0 10-4.476562 10-10s-4.476562-10-10-10zm0 0" fill="#FFFFFF"/></svg>
