<?xml version="1.0"?>
<svg xmlns="http://www.w3.org/2000/svg" height="512px" viewBox="0 -27 512.00177 512" width="512px"><path d="m111.824219 251.847656c-46.328125 0-84.019531-37.691406-84.019531-84.023437s37.691406-84.023438 84.019531-84.023438 84.019531 37.691407 84.019531 84.023438-37.691406 84.023437-84.019531 84.023437zm0-148.046875c-35.300781 0-64.019531 28.71875-64.019531 64.023438 0 35.300781 28.71875 64.023437 64.019531 64.023437s64.019531-28.722656 64.019531-64.023437c0-35.304688-28.71875-64.023438-64.019531-64.023438zm0 0" fill="#FFFFFF"/><path d="m111.824219 214.171875c-5.523438 0-10-4.476563-10-10s4.476562-10 10-10c14.527343 0 26.347656-11.820313 26.347656-26.347656 0-14.527344-11.820313-26.347657-26.347656-26.347657-14.527344 0-26.34375 11.816407-26.34375 26.347657 0 5.523437-4.476563 10-10 10-5.523438 0-10-4.476563-10-10 0-25.558594 20.789062-46.347657 46.34375-46.347657 25.554687 0 46.347656 20.789063 46.347656 46.347657 0 25.558593-20.792969 46.347656-46.347656 46.347656zm0 0" fill="#FFFFFF"/><path d="m415.570312 49.738281c-.648437 0-1.300781-.070312-1.949218-.199219-.640625-.132812-1.269532-.320312-1.871094-.570312s-1.179688-.5625-1.730469-.921875c-.539062-.359375-1.050781-.777344-1.519531-1.238281-.460938-.460938-.878906-.972656-1.238281-1.519532-.363281-.542968-.671875-1.121093-.921875-1.730468-.25-.601563-.441406-1.230469-.570313-1.871094-.128906-.640625-.199219-1.300781-.199219-1.949219 0-.648437.070313-1.308593.199219-1.960937.128907-.628906.320313-1.257813.570313-1.867188.25-.601562.558594-1.179687.921875-1.722656.359375-.550781.777343-1.058594 1.238281-1.519531.46875-.460938.980469-.878907 1.519531-1.25.550781-.359375 1.128907-.671875 1.730469-.921875s1.230469-.4375 1.871094-.566406c1.289062-.261719 2.617187-.261719 3.910156 0 .640625.128906 1.269531.316406 1.867188.566406.601562.25 1.179687.5625 1.730468.921875.539063.371093 1.058594.789062 1.519532 1.25.460937.460937.882812.96875 1.242187 1.519531.359375.542969.667969 1.121094.917969 1.722656.25.609375.441406 1.238282.570312 1.867188.128906.652344.1875 1.3125.1875 1.960937 0 .648438-.058594 1.3125-.1875 1.949219-.128906.640625-.320312 1.269531-.570312 1.871094-.25.609375-.558594 1.1875-.917969 1.730468-.371094.546876-.78125 1.058594-1.242187 1.519532-.460938.460937-.980469.878906-1.519532 1.238281-.550781.359375-1.128906.671875-1.730468.921875-.597657.25-1.230469.4375-1.867188.570312-.652344.128907-1.300781.199219-1.960938.199219zm0 0" fill="#FFFFFF"/><path d="m502 231.976562h-278.351562v-154.367187h185.53125v35.511719h-13.742188c-3.691406 0-7.082031 2.035156-8.820312 5.292968-1.738282 3.257813-1.542969 7.207032.515624 10.273438l53.277344 79.535156c1.859375 2.769532 4.972656 4.433594 8.308594 4.433594s6.453125-1.664062 8.308594-4.433594l53.28125-79.535156c2.054687-3.066406 2.253906-7.015625.515625-10.273438-1.738281-3.257812-5.128907-5.292968-8.820313-5.292968h-13.742187v-61.597656c0-13.761719-5.359375-26.699219-15.089844-36.429688-9.730469-9.734375-22.667969-15.09375-36.429687-15.09375h-426.742188c-5.523438 0-10 4.480469-10 10v314.683594c0 5.519531 4.476562 10 10 10h193.648438v112.789062c0 5.523438 4.480468 10 10 10h288.351562c5.523438 0 10-4.476562 10-10v-205.496094c0-5.523437-4.476562-10-10-10zm-42.972656-202.742187c5.953125 5.953125 9.234375 13.867187 9.234375 22.289063l-.003907 61.597656h-12.683593c-5.523438 0-10 4.480468-10 10 0 5.523437 4.476562 10 10 10h27.691406l-34.546875 51.566406-34.546875-51.566406h5.007813c5.519531 0 10-4.476563 10-10v-55.511719c0-5.523437-4.480469-10-10-10h-195.53125v-7.875h151.964843c5.523438 0 10-4.476563 10-10 0-5.519531-4.476562-10-10-10h-151.964843v-9.734375h213.09375c8.417968 0 16.332031 3.28125 22.285156 9.234375zm-255.378906-9.234375v43.5c-21.542969-4.167969-38.554688-21.535156-42.574219-43.5zm-183.648438 0h42.578125c-4.019531 21.964844-21.03125 39.332031-42.578125 43.5zm0 294.683594v-42.550782c21.488281 4.078126 38.464844 21.058594 42.546875 42.550782zm183.648438 0h-42.542969c4.082031-21.492188 21.054687-38.472656 42.542969-42.550782zm0-62.8125c-32.53125 4.449218-58.355469 30.273437-62.800782 62.8125h-58.042968c-4.445313-32.539063-30.269532-58.363282-62.804688-62.8125v-168.089844c15.867188-2.15625 30.503906-9.4375 41.976562-21.03125 11.527344-11.648438 18.75-26.558594 20.859376-42.75h57.980468c2.109375 16.191406 9.328125 31.101562 20.859375 42.75 11.46875 11.59375 26.105469 18.875 41.976563 21.03125v168.089844zm288.351562 185.601562h-268.351562v-108.378906h268.351562zm0-128.378906h-268.351562v-20.359375h268.351562zm0-40.359375h-268.351562v-16.757813h268.351562zm0 0" fill="#FFFFFF"/><path d="m394.71875 431.109375c7.867188 0 15.386719-1.984375 22.082031-5.789063 6.511719 3.683594 14.03125 5.789063 22.03125 5.789063 24.746094 0 44.878907-20.136719 44.878907-44.886719 0-24.753906-20.132813-44.890625-44.878907-44.890625-8 0-15.519531 2.105469-22.03125 5.792969-6.695312-3.804688-14.214843-5.792969-22.082031-5.792969-24.746094 0-44.878906 20.136719-44.878906 44.890625 0 24.75 20.132812 44.886719 44.878906 44.886719zm44.113281-69.777344c13.71875 0 24.878907 11.164063 24.878907 24.890625 0 13.722656-11.160157 24.890625-24.878907 24.890625s-24.878906-11.167969-24.878906-24.890625c0-13.726562 11.160156-24.890625 24.878906-24.890625zm-44.113281 0c2.148438 0 4.246094.269531 6.265625.789063-4.449219 6.964844-7.03125 15.238281-7.03125 24.101562 0 8.863282 2.582031 17.132813 7.03125 24.101563-2.019531.519531-4.117187.789062-6.265625.789062-13.71875 0-24.878906-11.167969-24.878906-24.890625 0-13.726562 11.160156-24.890625 24.878906-24.890625zm0 0" fill="#FFFFFF"/><path d="m328.660156 377.515625h-78.820312c-5.519532 0-10-4.476563-10-10 0-5.519531 4.480468-10 10-10h78.820312c5.523438 0 10 4.480469 10 10 0 5.523437-4.476562 10-10 10zm0 0" fill="#FFFFFF"/><path d="m328.660156 414.925781h-78.820312c-5.519532 0-10-4.476562-10-10 0-5.523437 4.480468-10 10-10h78.820312c5.523438 0 10 4.476563 10 10 0 5.523438-4.476562 10-10 10zm0 0" fill="#FFFFFF"/></svg>
